<?xml version="1.0" encoding="UTF-8" standalone="no"?>
<svg
   xmlns:dc="http://purl.org/dc/elements/1.1/"
   xmlns:cc="http://creativecommons.org/ns#"
   xmlns:rdf="http://www.w3.org/1999/02/22-rdf-syntax-ns#"
   xmlns:svg="http://www.w3.org/2000/svg"
   xmlns="http://www.w3.org/2000/svg"
   xmlns:sodipodi="http://sodipodi.sourceforge.net/DTD/sodipodi-0.dtd"
   xmlns:inkscape="http://www.inkscape.org/namespaces/inkscape"
   version="1.1"
   x="0px"
   y="0px"
   viewBox="0 0 1000 1000"
   enable-background="new 0 0 1000 1000"
   xml:space="preserve"
   id="svg30"
   sodipodi:docname="package_mod.svg"
   inkscape:version="1.0 (4035a4fb49, 2020-05-01)"><defs
   id="defs34" /><sodipodi:namedview
   lock-margins="false"
   inkscape:document-rotation="0"
   pagecolor="#ffffff"
   bordercolor="#666666"
   borderopacity="1"
   objecttolerance="10"
   gridtolerance="10"
   guidetolerance="10"
   inkscape:pageopacity="0"
   inkscape:pageshadow="2"
   inkscape:window-width="1920"
   inkscape:window-height="1017"
   id="namedview32"
   showgrid="false"
   inkscape:zoom="0.77023913"
   inkscape:cx="551.35981"
   inkscape:cy="516.71622"
   inkscape:window-x="-8"
   inkscape:window-y="-8"
   inkscape:window-maximized="1"
   inkscape:current-layer="g26" />
<metadata
   id="metadata2"> Svg Vector Icons : http://www.onlinewebfonts.com/icon <rdf:RDF><cc:Work
     rdf:about=""><dc:format>image/svg+xml</dc:format><dc:type
       rdf:resource="http://purl.org/dc/dcmitype/StillImage" /><dc:title></dc:title></cc:Work></rdf:RDF></metadata>
<g
   id="g26"
   transform="matrix(0.1,0,0,-0.1,0,511)"><g
     id="g852"><path
       style="fill:#4d4d4d;fill-opacity:1"
       d="m 4093.6,4997.5 c -437.5,-92 -825.6,-442 -953.5,-854.8 C 3095.2,3999.1 3095.2,3934 3095.2,1345 V -1306.9 L 2960.6,-1446 c -531.7,-549.7 -717.9,-1348.4 -480.1,-2048.4 208.6,-617 789.7,-1126.3 1442.6,-1265.4 190.7,-40.4 531.7,-40.4 722.4,0 632.7,134.6 1213.8,634.9 1426.9,1227.2 258,713.5 71.8,1548.1 -466.7,2086.5 l -132.4,132.4 -4.5,2696.8 -6.7,2699 -49.4,123.4 c -152.6,370.2 -493.6,675.3 -872.7,774 -121.1,31.5 -343.2,40.5 -446.4,18 z m 516,-531.7 c 145.8,-65.1 251.3,-172.8 323.1,-327.6 l 58.3,-123.4 11.2,-2795.5 11.2,-2797.7 143.6,-107.6 c 341,-255.8 534,-626 556.4,-1063.5 15.7,-307.4 -26.9,-507 -163.8,-785.2 -289.4,-590.1 -908.6,-886.2 -1575,-749.4 -536.2,107.7 -955.8,536.2 -1092.6,1112.8 -42.6,184 -42.6,511.5 0,679.8 85.2,325.3 287.2,630.5 545.2,818.9 l 139.1,101 v 2748.4 c 0,2454.5 4.5,2764.1 35.9,2874 71.8,242.3 260.3,417.3 509.3,468.9 141.4,29.1 370.2,4.5 498.1,-53.9 z"
       id="path4" /><path
       style="fill:#4d4d4d;fill-opacity:1"
       d="m 4225.9,936.7 c -26.9,-4.5 -76.3,-40.4 -112.2,-76.3 l -65.1,-67.3 -6.6,-1373.1 -4.5,-1373.1 -150.3,-78.5 c -273.7,-141.3 -486.8,-415.1 -545.2,-702.2 -96.5,-471.2 298.4,-1000.6 812.2,-1094.9 464.4,-83 980.4,309.6 1074.6,816.7 65.1,361.2 -170.5,785.2 -547.4,980.4 l -150.3,78.5 -4.5,1373.1 -6.7,1375.3 -67.3,65.1 c -69.6,65.1 -143.6,92 -226.7,76.3 z m 343.3,-3421.4 c 136.8,-89.7 192.9,-224.4 181.7,-430.8 -13.5,-305.1 -181.7,-453.2 -498.1,-435.3 -305.1,13.4 -453.2,181.7 -435.2,498.1 9,199.7 76.3,318.6 224.4,392.6 141.3,71.8 399.3,60.6 527.2,-24.6 z"
       id="path6" /><path
       style="fill:#ff0000"
       d="m 779.8,4701.4 c -62.8,-56.1 -74,-80.8 -74,-168.3 0,-80.8 13.5,-114.4 62.8,-163.8 l 60.6,-62.8 679.8,-6.7 c 641.7,-4.5 682.1,-2.2 749.4,38.1 127.9,80.8 136.9,273.7 17.9,379.2 -58.3,49.4 -65.1,49.4 -740.4,49.4 H 851.6 Z"
       id="path8" /><path
       style="fill:#0000ff;fill-opacity:1"
       d="m 6763.4,4717.1 c -80.7,-74 -403.8,-625.9 -486.8,-836.8 -132.4,-338.8 -78.5,-585.6 172.8,-816.7 291.7,-264.8 637.2,-267 935.6,-4.5 219.9,195.2 293.9,480.1 197.4,747.1 -109.9,307.4 -444.2,877.2 -540.7,928.8 -94.3,47.2 -211,40.4 -278.3,-17.9 z m 316.3,-926.6 c 78.5,-161.5 92,-237.8 53.8,-336.5 -49.4,-130.1 -311.9,-157.1 -403.8,-40.4 -85.2,109.9 -58.3,251.3 105.5,540.7 l 78.5,143.6 47.1,-76.3 c 24.7,-40.4 78.5,-143.6 118.9,-231.1 z"
       id="path10" /><path
       style="fill:#ff0000;fill-opacity:1"
       d="m 1334,3804 c -163.8,-69.6 -204.2,-269.2 -80.8,-390.4 l 69.6,-71.8 h 448.7 448.7 l 67.3,69.6 c 101,98.7 101,233.3 2.2,332 l -69.6,69.6 -421.8,4.5 c -231,2.2 -439.6,-4.6 -464.3,-13.5 z"
       id="path12" /><path
       style="fill:#0000ff;fill-opacity:1"
       d="m 8477.5,3543.7 c -107.7,-58.3 -459.9,-659.6 -558.7,-953.5 -107.7,-320.8 40.4,-664.1 361.2,-841.3 107.7,-60.6 141.3,-67.3 311.9,-67.3 170.5,0 204.1,6.7 311.9,67.3 289.4,159.3 455.4,489.1 385.9,767.3 -67.3,262.5 -450.9,944.5 -574.3,1018.6 -80.9,49.3 -157.1,53.8 -237.9,8.9 z m 237.8,-868.2 c 121.2,-228.8 139.1,-347.8 74,-448.7 -74,-112.2 -320.8,-112.2 -394.9,0 -65.1,98.7 -44.9,219.9 71.8,448.7 60.5,114.4 114.4,206.4 123.4,206.4 9,0 65.1,-92 125.7,-206.4 z"
       id="path14" /><path
       style="fill:#ff0000;fill-opacity:1"
       d="m 779.8,2794.4 c -62.8,-56.1 -74,-80.8 -74,-170.5 0,-89.7 11.2,-114.4 74,-170.5 l 71.8,-65.1 h 684.3 c 675.3,0 682,0 740.4,51.6 118.9,103.2 109.9,298.4 -17.9,374.7 -67.3,42.6 -116.7,44.9 -738.1,44.9 H 851.6 Z"
       id="path16" /><path
       style="fill:#ff0000;fill-opacity:1"
       d="m 1266.7,1845.3 c -118.9,-105.4 -109.9,-300.6 17.9,-376.9 65.1,-40.4 114.4,-44.9 486.9,-44.9 372.4,0 421.8,4.5 486.9,44.9 127.9,76.3 136.9,271.5 17.9,376.9 -56.1,47.1 -74,49.4 -504.8,49.4 -430.8,0 -448.7,-2.2 -504.8,-49.4 z"
       id="path18" /><path
       style="fill:#ff0000;fill-opacity:1"
       d="m 835.9,921 c -74,-33.7 -141.3,-134.6 -141.3,-215.4 0,-83 67.3,-181.7 145.8,-215.4 103.2,-42.6 1294.5,-44.9 1377.5,-2.2 152.6,78.5 188.5,267 71.8,383.7 l -69.6,69.6 -657.4,4.5 C 1040.1,950.2 894.3,945.7 835.9,921 Z"
       id="path20" /><path
       style="fill:#ff0000;fill-opacity:1"
       d="m 1284.6,-57.2 c -127.9,-76.3 -136.9,-271.5 -17.9,-374.7 56.1,-49.3 74,-51.6 504.8,-51.6 430.8,0 448.7,2.3 504.8,51.6 118.9,103.2 109.9,298.4 -17.9,374.7 -65.1,40.4 -114.4,44.9 -486.9,44.9 -372.4,0 -421.8,-4.5 -486.9,-44.9 z"
       id="path22" /><path
       style="fill:#ff0000;fill-opacity:1"
       d="m 779.8,-1042.1 c -62.8,-56.1 -74,-80.8 -74,-168.3 0,-80.8 13.5,-114.4 62.8,-163.8 l 60.6,-62.8 679.8,-6.7 c 641.7,-4.5 682.1,-2.2 749.4,38.1 127.9,80.8 136.9,273.7 17.9,379.2 -58.3,49.4 -65.1,49.4 -740.4,49.4 H 851.6 Z"
       id="path24" /></g></g>
</svg>
